<svg version="1.1" id="Layer_1" xmlns="http://www.w3.org/2000/svg" xmlns:xlink="http://www.w3.org/1999/xlink" x="0px" y="0px"
	 width="100%" viewBox="0 0 500 500" enable-background="new 0 0 500 500" xml:space="preserve">
<path fill="#000000" opacity="1.000000" stroke="none" 
	d="
M350.000000,501.000000 
	C233.333359,501.000000 117.166725,501.000000 1.000062,501.000000 
	C1.000041,334.333405 1.000041,167.666809 1.000021,1.000152 
	C167.666550,1.000101 334.333099,1.000101 500.999756,1.000051 
	C500.999817,167.666519 500.999817,334.333038 500.999908,500.999786 
	C450.833344,501.000000 400.666656,501.000000 350.000000,501.000000 
M205.479919,393.812317 
	C207.240234,403.171478 213.297577,405.458466 225.244003,400.855560 
	C225.244003,394.136749 225.451584,387.194885 225.201523,380.269531 
	C224.651093,365.024994 223.463409,349.793579 223.285019,334.548035 
	C223.061249,315.422974 223.600952,296.289276 223.785599,277.159088 
	C223.907104,264.569214 223.753876,251.971848 224.141998,239.390732 
	C224.565872,225.651016 225.640350,211.931946 226.111694,198.192917 
	C226.450851,188.306931 225.975723,178.391113 226.380524,168.509750 
	C227.049255,152.185608 228.070145,135.874435 229.111420,119.568558 
	C229.277130,116.973450 231.353653,114.172150 230.778656,111.917000 
	C228.717407,103.832932 227.195724,95.338570 217.095505,92.363930 
	C210.818466,90.515274 205.741043,91.741554 203.963776,98.161865 
	C200.927612,109.130013 198.060974,120.195190 196.053238,131.386475 
	C192.839355,149.300888 190.681778,167.403763 187.529266,185.330521 
	C184.208527,204.213821 180.347595,223.005127 176.496613,241.790283 
	C175.372635,247.273056 173.475433,252.597305 171.932648,257.994232 
	C171.519104,257.935822 171.105545,257.877380 170.692001,257.818970 
	C168.809357,231.633301 166.926727,205.447632 165.016647,178.880463 
	C165.251785,178.581726 166.703415,177.591644 166.710480,176.591324 
	C166.760452,169.523544 166.799911,162.434387 163.817245,155.743622 
	C162.797501,153.456100 162.039734,150.998413 161.544144,148.541443 
	C160.426270,142.999374 154.158417,137.560425 148.792419,137.730591 
	C142.363037,137.934494 138.203003,141.893600 137.265274,148.594208 
	C136.919846,151.062515 136.209122,153.488800 135.983185,155.963303 
	C133.853912,179.283966 131.243469,202.578354 129.859909,225.944748 
	C128.318619,251.975235 127.395409,278.068573 127.177475,304.142700 
	C127.009674,324.219513 128.228958,344.314240 129.108200,364.388855 
	C129.312332,369.049500 129.385956,374.370697 134.306366,377.051941 
	C137.371155,378.722015 141.102036,380.780182 144.210037,380.345917 
	C147.950714,379.823212 148.812134,375.502991 149.087433,371.775085 
	C149.462494,366.696320 149.960541,361.626678 150.274719,358.047302 
	C148.573502,354.798645 146.840439,352.799530 146.518478,350.594391 
	C145.898621,346.348846 145.891556,341.984039 145.954987,337.673431 
	C146.336243,311.761444 146.694016,285.847992 147.325211,259.941498 
	C147.506363,252.506287 148.566437,245.092484 149.223526,237.668854 
	C150.054977,239.278564 150.274582,240.888321 150.429001,242.504303 
	C151.672943,255.524384 152.531464,268.595032 154.247086,281.552368 
	C155.898468,294.024475 158.745605,306.338104 160.404709,318.809509 
	C160.968674,323.048920 162.881485,325.741150 165.797028,328.156433 
	C171.349487,332.756165 179.045563,331.126343 180.942886,324.456512 
	C184.602173,311.592682 187.995667,298.627441 190.802200,285.554565 
	C193.319443,273.829346 194.952988,261.911652 196.878052,250.062912 
	C198.328934,241.132965 199.540329,232.163879 201.014297,223.237976 
	C202.311874,215.380219 203.825699,207.558182 205.454239,198.558746 
	C205.454239,264.232605 205.454239,328.598938 205.479919,393.812317 
M261.330811,146.871536 
	C261.271545,144.788712 261.105316,142.702332 261.174194,140.623749 
	C261.341705,135.569199 261.695221,130.520218 261.822174,125.465187 
	C261.897827,122.452667 261.858917,119.414742 261.542511,116.423035 
	C261.340332,114.511383 259.770599,112.494614 260.139832,110.816719 
	C261.534088,104.480392 257.474701,102.797462 252.879654,101.020172 
	C244.995621,97.970718 240.653915,100.433403 239.971634,108.667427 
	C239.855011,110.074715 239.916779,111.502426 239.973709,112.917580 
	C240.529587,126.735603 240.807770,140.573120 241.752960,154.364807 
	C242.684280,167.953934 245.010513,181.417023 251.454361,193.589417 
	C257.186829,204.418045 267.088165,211.279861 280.925873,202.544479 
	C281.773315,202.009506 282.680389,201.568954 283.559692,201.084473 
	C283.293854,200.804062 283.027985,200.523636 282.762115,200.243210 
	C281.870941,200.203094 280.979736,200.162979 279.483124,200.095612 
	C282.065094,196.406708 284.335999,193.162186 286.606934,189.917679 
	C286.648682,199.332855 285.919708,208.455353 284.847717,217.537354 
	C283.022736,232.998810 280.790161,248.413986 279.108124,263.889801 
	C278.185669,272.376648 278.042816,280.948059 277.541840,289.480927 
	C276.798462,302.142822 275.270538,314.818726 275.503448,327.462372 
	C275.782166,342.590454 278.015198,357.675629 278.525482,372.808929 
	C278.834564,381.975830 284.686951,385.282501 291.594940,387.915070 
	C293.099213,388.488312 296.576874,387.540558 297.084595,386.386597 
	C298.615326,382.907318 299.772736,379.001038 299.888763,375.224823 
	C300.055023,369.813965 301.464752,363.909363 296.775238,359.321838 
	C296.381287,358.936432 296.355103,358.062134 296.346405,357.412476 
	C296.130890,341.358124 295.319519,325.280426 295.912659,309.254974 
	C296.569122,291.517914 298.384460,273.817200 299.935028,256.121674 
	C301.527313,237.950394 302.789398,219.717941 305.309021,201.667633 
	C309.151642,174.139786 314.047180,146.760330 318.286499,119.285583 
	C319.546387,111.120331 320.569000,103.021042 312.681305,96.632050 
	C309.023285,93.669052 305.298431,93.856812 301.639618,94.294014 
	C300.462677,94.434654 299.672577,98.521324 298.877655,100.861214 
	C298.458191,102.095901 298.601532,103.525070 298.164520,104.750038 
	C290.765930,125.488197 283.444397,146.255692 275.783295,166.896988 
	C273.963074,171.801224 270.967621,176.269287 268.512756,180.937988 
	C267.800537,180.859467 267.088318,180.780945 266.376129,180.702423 
	C264.705872,169.730026 263.035614,158.757645 261.330811,146.871536 
z"/>
<path fill="#5BDFE3" opacity="1.000000" stroke="none" 
	d="
M205.467072,393.388794 
	C205.454239,328.598938 205.454239,264.232605 205.454239,198.558746 
	C203.825699,207.558182 202.311874,215.380219 201.014297,223.237976 
	C199.540329,232.163879 198.328934,241.132965 196.878052,250.062912 
	C194.952988,261.911652 193.319443,273.829346 190.802200,285.554565 
	C187.995667,298.627441 184.602173,311.592682 180.942886,324.456512 
	C179.045563,331.126343 171.349487,332.756165 165.797028,328.156433 
	C162.881485,325.741150 160.968674,323.048920 160.404709,318.809509 
	C158.745605,306.338104 155.898468,294.024475 154.247086,281.552368 
	C152.531464,268.595032 151.672943,255.524384 150.429001,242.504303 
	C150.274582,240.888321 150.054977,239.278564 149.223526,237.668854 
	C148.566437,245.092484 147.506363,252.506287 147.325211,259.941498 
	C146.694016,285.847992 146.336243,311.761444 145.954987,337.673431 
	C145.891556,341.984039 145.898621,346.348846 146.518478,350.594391 
	C146.840439,352.799530 148.573502,354.798645 150.274719,358.047302 
	C149.960541,361.626678 149.462494,366.696320 149.087433,371.775085 
	C148.812134,375.502991 147.950714,379.823212 144.210037,380.345917 
	C141.102036,380.780182 137.371155,378.722015 134.306366,377.051941 
	C129.385956,374.370697 129.312332,369.049500 129.108200,364.388855 
	C128.228958,344.314240 127.009674,324.219513 127.177475,304.142700 
	C127.395409,278.068573 128.318619,251.975235 129.859909,225.944748 
	C131.243469,202.578354 133.853912,179.283966 135.983185,155.963303 
	C136.209122,153.488800 136.919846,151.062515 137.265274,148.594208 
	C138.203003,141.893600 142.363037,137.934494 148.792419,137.730591 
	C154.158417,137.560425 160.426270,142.999374 161.544144,148.541443 
	C162.039734,150.998413 162.797501,153.456100 163.817245,155.743622 
	C166.799911,162.434387 166.760452,169.523544 166.710480,176.591324 
	C166.703415,177.591644 165.251785,178.581726 165.016647,178.880463 
	C166.926727,205.447632 168.809357,231.633301 170.692001,257.818970 
	C171.105545,257.877380 171.519104,257.935822 171.932648,257.994232 
	C173.475433,252.597305 175.372635,247.273056 176.496613,241.790283 
	C180.347595,223.005127 184.208527,204.213821 187.529266,185.330521 
	C190.681778,167.403763 192.839355,149.300888 196.053238,131.386475 
	C198.060974,120.195190 200.927612,109.130013 203.963776,98.161865 
	C205.741043,91.741554 210.818466,90.515274 217.095505,92.363930 
	C227.195724,95.338570 228.717407,103.832932 230.778656,111.917000 
	C231.353653,114.172150 229.277130,116.973450 229.111420,119.568558 
	C228.070145,135.874435 227.049255,152.185608 226.380524,168.509750 
	C225.975723,178.391113 226.450851,188.306931 226.111694,198.192917 
	C225.640350,211.931946 224.565872,225.651016 224.141998,239.390732 
	C223.753876,251.971848 223.907104,264.569214 223.785599,277.159088 
	C223.600952,296.289276 223.061249,315.422974 223.285019,334.548035 
	C223.463409,349.793579 224.651093,365.024994 225.201523,380.269531 
	C225.451584,387.194885 225.244003,394.136749 225.244003,400.855560 
	C213.297577,405.458466 207.240234,403.171478 205.467072,393.388794 
z"/>
<path fill="#5BDEE3" opacity="1.000000" stroke="none" 
	d="
M261.348083,147.328400 
	C263.035614,158.757645 264.705872,169.730026 266.376129,180.702423 
	C267.088318,180.780945 267.800537,180.859467 268.512756,180.937988 
	C270.967621,176.269287 273.963074,171.801224 275.783295,166.896988 
	C283.444397,146.255692 290.765930,125.488197 298.164520,104.750038 
	C298.601532,103.525070 298.458191,102.095901 298.877655,100.861214 
	C299.672577,98.521324 300.462677,94.434654 301.639618,94.294014 
	C305.298431,93.856812 309.023285,93.669052 312.681305,96.632050 
	C320.569000,103.021042 319.546387,111.120331 318.286499,119.285583 
	C314.047180,146.760330 309.151642,174.139786 305.309021,201.667633 
	C302.789398,219.717941 301.527313,237.950394 299.935028,256.121674 
	C298.384460,273.817200 296.569122,291.517914 295.912659,309.254974 
	C295.319519,325.280426 296.130890,341.358124 296.346405,357.412476 
	C296.355103,358.062134 296.381287,358.936432 296.775238,359.321838 
	C301.464752,363.909363 300.055023,369.813965 299.888763,375.224823 
	C299.772736,379.001038 298.615326,382.907318 297.084595,386.386597 
	C296.576874,387.540558 293.099213,388.488312 291.594940,387.915070 
	C284.686951,385.282501 278.834564,381.975830 278.525482,372.808929 
	C278.015198,357.675629 275.782166,342.590454 275.503448,327.462372 
	C275.270538,314.818726 276.798462,302.142822 277.541840,289.480927 
	C278.042816,280.948059 278.185669,272.376648 279.108124,263.889801 
	C280.790161,248.413986 283.022736,232.998810 284.847717,217.537354 
	C285.919708,208.455353 286.648682,199.332855 286.606934,189.917679 
	C284.335999,193.162186 282.065094,196.406708 279.483124,200.095612 
	C280.979736,200.162979 281.870941,200.203094 282.762115,200.243210 
	C283.027985,200.523636 283.293854,200.804062 283.559692,201.084473 
	C282.680389,201.568954 281.773315,202.009506 280.925873,202.544479 
	C267.088165,211.279861 257.186829,204.418045 251.454361,193.589417 
	C245.010513,181.417023 242.684280,167.953934 241.752960,154.364807 
	C240.807770,140.573120 240.529587,126.735603 239.973709,112.917580 
	C239.916779,111.502426 239.855011,110.074715 239.971634,108.667427 
	C240.653915,100.433403 244.995621,97.970718 252.879654,101.020172 
	C257.474701,102.797462 261.534088,104.480392 260.139832,110.816719 
	C259.770599,112.494614 261.340332,114.511383 261.542511,116.423035 
	C261.858917,119.414742 261.897827,122.452667 261.822174,125.465187 
	C261.695221,130.520218 261.341705,135.569199 261.174194,140.623749 
	C261.105316,142.702332 261.271545,144.788712 261.348083,147.328400 
z"/>
</svg>